<?xml version="1.0" standalone="no"?>
<!DOCTYPE svg PUBLIC "-//W3C//DTD SVG 20010904//EN"
 "http://www.w3.org/TR/2001/REC-SVG-20010904/DTD/svg10.dtd">
<svg version="1.0" xmlns="http://www.w3.org/2000/svg"
 width="400.000000pt" height="400.000000pt" viewBox="0 0 400.000000 400.000000"
 preserveAspectRatio="xMidYMid meet">

<g transform="translate(0.000000,400.000000) scale(0.100000,-0.100000)"
fill="#000000" stroke="none">
<path d="M1900 3895 c-41 -7 -102 -23 -135 -35 -33 -12 -116 -36 -185 -55
-141 -37 -227 -74 -315 -134 -33 -23 -64 -41 -69 -41 -5 0 -30 -19 -55 -43
-25 -24 -53 -48 -61 -53 -33 -20 -88 -104 -95 -144 0 -3 -5 -14 -11 -25 -12
-24 -45 -135 -49 -170 -1 -5 -9 -35 -18 -65 -23 -79 -74 -516 -62 -529 3 -2
25 -6 49 -7 30 -1 66 -14 112 -39 97 -54 113 -73 109 -125 -3 -47 -20 -73 -31
-47 -3 9 -12 17 -20 17 -8 0 -14 8 -14 17 0 9 -3 14 -6 10 -3 -3 -27 16 -53
43 -27 28 -59 51 -76 55 -17 3 -45 10 -63 14 -28 8 -35 6 -52 -17 -11 -14 -28
-50 -37 -81 -15 -52 -15 -64 1 -161 9 -58 16 -121 16 -141 0 -50 17 -96 56
-152 39 -54 39 -60 19 -158 -13 -60 -14 -87 -4 -153 21 -152 149 -373 315
-546 45 -47 117 -128 160 -181 44 -53 115 -138 159 -189 171 -198 276 -350
312 -450 20 -57 40 -64 76 -27 62 63 148 174 158 206 21 65 51 115 96 158 24
24 47 43 52 43 4 0 22 20 40 45 18 25 36 45 42 45 5 0 9 6 9 14 0 8 8 21 18
28 9 7 24 27 32 43 l16 30 139 0 c148 0 199 10 256 47 43 29 77 97 83 166 3
30 9 59 14 65 5 7 11 21 14 32 3 11 16 56 28 100 38 139 23 293 -30 310 -21 7
-45 94 -30 109 5 5 10 19 10 30 0 19 0 19 21 0 17 -16 22 -16 29 -4 8 13 10
12 10 -2 0 -11 8 -18 19 -18 11 0 21 -9 25 -22 6 -21 8 -19 25 18 29 64 53
155 45 173 -4 9 -6 19 -6 24 1 4 -2 7 -8 7 -5 0 -10 -5 -10 -12 0 -7 -16 4
-36 25 -20 21 -34 40 -31 43 16 16 -27 33 -99 38 -127 9 -153 12 -161 19 -4 4
-19 -5 -35 -20 -22 -21 -40 -28 -87 -31 -52 -4 -60 -2 -70 17 -12 22 -4 48 27
84 23 26 75 22 111 -9 20 -16 35 -22 45 -17 39 23 -46 93 -87 72 -9 -6 -22 -7
-27 -4 -26 16 3 80 69 154 17 18 31 39 31 46 0 7 9 24 20 38 l20 26 -20 6
c-21 7 -27 39 -10 50 6 4 29 4 50 0 33 -6 41 -12 46 -33 4 -15 12 -34 19 -42
7 -8 22 -42 34 -75 35 -92 45 -109 71 -122 14 -7 24 -16 23 -20 -1 -5 11 -9
25 -9 15 -1 52 -9 82 -18 72 -21 230 -22 269 -1 17 8 38 34 51 59 14 29 29 46
43 48 17 2 23 14 33 61 10 49 9 59 -3 64 -7 3 -20 18 -29 34 -17 34 -54 55
-147 83 l-68 21 -3 65 c-4 110 -67 195 -153 207 -33 4 -46 0 -93 -36 -30 -23
-59 -41 -65 -41 -6 0 -31 -11 -56 -25 -26 -13 -49 -21 -53 -18 -3 4 -6 -7 -6
-24 0 -16 3 -33 7 -37 4 -4 8 -29 9 -56 l1 -48 -49 -4 c-42 -3 -48 -1 -49 17
-2 38 3 70 12 73 5 2 9 10 9 17 0 7 7 15 15 19 8 3 15 17 15 31 0 16 -6 25
-15 25 -8 0 -15 4 -15 9 0 5 -13 14 -29 21 -29 12 -101 84 -101 100 0 31 -25
59 -59 66 -42 8 -177 16 -306 17 -84 0 -94 -2 -150 -32 -33 -19 -64 -37 -69
-42 -6 -5 -18 -9 -29 -9 -10 0 -16 -4 -12 -9 6 -11 -33 -26 -43 -16 -4 3 -1
10 7 14 10 7 10 9 -2 14 -9 3 -18 -6 -27 -28 -7 -18 -23 -36 -34 -39 -18 -5
-19 -8 -6 -16 13 -10 13 -11 0 -9 -46 5 -57 -1 -57 -31 0 -16 5 -30 11 -30 6
0 6 -4 -1 -11 -6 -6 -9 -17 -6 -25 3 -8 -5 -16 -22 -20 -27 -7 -225 3 -234 12
-2 2 3 12 11 21 9 10 13 24 11 31 -7 19 28 53 51 50 12 -2 21 3 21 10 0 7 7
17 15 23 13 8 12 12 -5 27 -11 9 -21 27 -22 40 -2 17 2 22 22 22 14 0 25 5 25
10 0 6 -9 10 -21 10 -20 0 -20 0 3 43 31 57 50 82 66 83 32 3 34 5 29 31 -7
37 10 80 25 65 7 -7 16 -12 22 -12 5 0 1 6 -9 14 -11 8 -16 19 -12 30 4 9 2
16 -3 16 -6 0 -10 9 -10 20 0 11 -6 19 -12 18 -7 -2 -14 6 -16 18 -2 12 -14
27 -27 34 -13 7 -34 34 -47 61 -12 27 -29 49 -36 49 -17 0 -26 25 -15 43 4 8
30 40 57 71 35 40 54 55 67 51 9 -3 20 -1 24 5 9 14 48 13 64 -2 11 -11 15 -9
25 6 40 65 65 78 151 77 22 0 47 6 55 13 10 9 53 14 135 15 108 2 134 -1 260
-33 77 -20 194 -56 260 -80 66 -25 133 -47 149 -51 16 -3 41 -19 55 -34 15
-16 35 -31 46 -35 11 -3 30 -22 43 -41 12 -19 26 -35 30 -35 5 0 5 28 -1 63
-11 78 -67 187 -124 244 -55 54 -195 147 -264 175 -30 12 -65 29 -79 38 -69
45 -139 60 -400 83 -25 2 -61 7 -80 10 -19 3 -69 0 -110 -8z m193 -1262 c-7
-2 -21 -2 -30 0 -10 3 -4 5 12 5 17 0 24 -2 18 -5z m-120 -50 c-7 -2 -19 -2
-25 0 -7 3 -2 5 12 5 14 0 19 -2 13 -5z m141 -28 c-4 -8 -11 -15 -16 -15 -6 0
-5 6 2 15 7 8 14 15 16 15 2 0 1 -7 -2 -15z m1132 -107 c57 -22 95 -61 77 -79
-20 -20 -273 -39 -273 -20 0 10 49 99 65 119 12 15 56 8 131 -20z m-1298 -40
c2 -31 10 -54 26 -71 32 -35 122 -66 259 -90 64 -11 117 -24 117 -29 0 -4 -7
-8 -15 -8 -8 0 -15 -4 -15 -10 0 -5 -7 -10 -15 -10 -8 0 -15 -5 -15 -11 0 -6
6 -9 14 -6 24 9 25 -4 3 -29 -11 -13 -30 -24 -41 -24 -13 0 -26 -10 -33 -25
-6 -14 -7 -25 -2 -25 5 0 9 5 9 10 0 6 7 10 15 10 8 0 15 -5 15 -11 0 -5 5 -7
10 -4 14 9 13 -48 -2 -63 -9 -9 -9 -12 3 -12 9 0 5 -8 -11 -23 -14 -12 -26
-30 -26 -40 -2 -14 8 -10 45 17 26 19 51 32 57 28 6 -4 27 -36 47 -72 40 -71
122 -170 142 -170 18 0 75 -30 75 -40 0 -11 -112 -46 -172 -54 -35 -4 -47 -2
-45 7 1 7 -8 11 -24 9 -14 -2 -31 3 -38 11 -8 11 -20 13 -44 7 -61 -16 -77
-22 -77 -31 0 -5 -5 -9 -11 -9 -7 0 -18 -8 -25 -17 -12 -16 -13 -15 -14 10 0
17 -4 26 -10 22 -6 -4 -9 -22 -8 -42 1 -23 -3 -39 -14 -47 -13 -10 -14 -15 -3
-29 12 -17 65 -24 65 -8 0 13 100 22 121 11 10 -6 44 -14 76 -20 104 -17 122
-22 134 -36 7 -9 8 -14 1 -14 -6 0 -12 6 -15 13 -3 9 -11 8 -33 -5 -21 -12
-42 -15 -72 -11 -34 5 -42 3 -42 -11 0 -9 -7 -16 -15 -16 -9 0 -18 -7 -21 -15
-8 -20 65 -103 98 -110 15 -4 32 -13 39 -21 7 -9 31 -14 70 -14 63 0 108 -13
125 -36 7 -9 30 -15 60 -16 57 0 84 -12 84 -36 0 -15 2 -15 10 -2 7 11 10 12
10 2 0 -15 -31 -71 -40 -73 -32 -5 -60 -3 -60 4 0 5 -9 5 -20 2 -20 -6 -21 -5
-24 59 -1 11 -8 21 -16 24 -12 3 -12 1 -2 -6 20 -14 -12 -36 -42 -28 -20 5
-25 2 -28 -16 -3 -24 -54 -44 -73 -28 -6 5 -17 5 -25 0 -20 -13 -67 -13 -75 0
-3 6 -17 10 -29 10 -13 0 -29 6 -35 14 -7 8 -23 17 -36 20 -14 4 -25 11 -25
16 0 6 -9 10 -20 10 -27 0 -70 29 -70 46 0 8 5 14 11 14 6 0 8 9 4 20 -5 14
-2 20 9 20 10 0 16 9 16 25 0 16 6 25 15 25 8 0 15 4 15 9 0 5 12 14 28 19
l27 10 -32 1 c-22 1 -33 6 -33 16 0 17 -35 21 -45 5 -3 -5 -17 -10 -31 -10
-29 0 -34 34 -7 44 11 5 13 10 7 14 -6 4 -13 15 -17 25 -5 14 -15 17 -39 15
-27 -2 -33 -7 -31 -25 3 -26 -29 -47 -58 -40 -10 3 -26 -1 -36 -9 -24 -18 -33
-17 -33 1 0 8 -4 15 -8 15 -5 0 -8 -10 -8 -21 1 -31 -19 -34 -32 -4 -8 16 -20
25 -35 25 -14 0 -35 13 -50 30 -30 33 -51 38 -64 15 -5 -8 -13 -11 -19 -7 -20
14 -44 57 -44 79 0 13 -6 23 -13 23 -16 0 -40 56 -34 80 3 11 1 20 -4 20 -16
0 -9 39 8 49 13 7 23 5 35 -6 15 -13 19 -13 42 4 14 10 24 23 21 29 -4 13 35
54 51 54 5 0 2 -5 -6 -10 -11 -7 -12 -12 -3 -21 6 -6 9 -18 6 -27 -13 -32 19
1 33 34 8 19 18 34 23 34 9 0 27 39 23 51 -1 4 12 12 28 19 17 7 30 16 30 21
0 5 6 9 14 9 8 0 17 14 21 30 4 17 11 28 16 24 5 -3 9 2 9 10 0 8 9 18 20 21
24 8 17 25 -11 25 -11 0 -19 -7 -19 -17 -1 -11 -6 -5 -15 14 -13 31 -45 49
-77 44 -12 -1 -15 3 -11 19 4 14 1 20 -10 20 -9 0 -21 9 -27 20 -6 12 -22 21
-38 21 -23 2 -24 2 -4 6 12 2 22 9 22 14 0 6 -9 7 -21 4 -15 -5 -29 2 -54 29
-23 25 -39 34 -52 30 -15 -5 -15 -4 -3 4 12 9 10 15 -13 36 -14 13 -35 27 -46
31 -11 3 -27 20 -36 37 -19 39 -19 49 0 42 18 -7 47 14 39 27 -3 5 22 7 55 4
52 -3 61 -2 66 15 7 21 36 28 115 26 l55 -1 3 -47z m602 12 c0 -5 -6 -15 -13
-22 -20 -19 -48 -83 -45 -98 10 -45 -136 -52 -313 -15 -157 32 -190 49 -204
106 -8 33 3 41 41 29 16 -5 56 -17 89 -25 33 -9 78 -22 100 -29 33 -10 48 -10
85 1 25 7 61 15 81 17 20 2 48 11 62 21 14 9 41 19 59 22 18 3 35 7 37 9 6 5
21 -6 21 -16z m-1705 -160 c-11 -18 16 -89 46 -120 26 -25 38 -30 75 -28 39 1
50 -3 82 -35 22 -21 49 -37 67 -39 26 -3 30 0 33 25 2 16 -6 42 -18 62 -28 46
-20 92 18 102 20 5 30 0 47 -22 24 -29 29 -72 12 -93 -5 -7 -10 -28 -9 -47 1
-21 -3 -35 -11 -36 -7 -1 -20 -2 -31 -3 -17 -1 -44 -46 -28 -46 4 0 22 -13 40
-29 38 -34 44 -82 13 -103 -26 -18 -139 -13 -161 7 -9 8 -21 15 -27 15 -15 0
-70 55 -87 87 -8 15 -27 37 -43 49 -38 28 -73 102 -72 150 1 38 1 38 9 10 11
-34 58 -86 78 -86 9 0 0 16 -22 40 -28 32 -36 48 -36 79 0 45 8 71 22 71 5 0
6 -4 3 -10z m2184 -47 c7 -12 10 -14 11 -4 0 9 8 12 27 8 14 -3 69 -1 122 3
53 5 97 7 99 5 2 -2 -6 -22 -19 -44 -21 -38 -26 -41 -68 -43 -157 -7 -284 18
-288 57 -2 11 0 14 3 8 3 -7 15 -13 27 -12 13 0 16 3 9 6 -10 4 -7 9 10 18 33
19 55 18 67 -2z m-1182 -99 c19 -19 13 -68 -9 -72 -9 -2 -25 5 -36 16 -11 11
-26 22 -33 25 -8 3 5 6 29 6 53 1 56 21 2 21 -22 0 -40 4 -40 8 0 14 73 11 87
-4z m313 -657 c0 -18 -27 -53 -35 -45 -4 3 1 18 10 32 19 29 25 32 25 13z m84
-83 c3 -8 2 -12 -4 -9 -6 3 -10 1 -10 -5 0 -6 -4 -8 -10 -5 -6 4 -5 11 3 20
15 18 14 18 21 -1z"/>
<path d="M2175 2090 c-3 -5 -2 -10 4 -10 5 0 13 5 16 10 3 6 2 10 -4 10 -5 0
-13 -4 -16 -10z"/>
<path d="M2020 2050 c0 -5 5 -10 10 -10 6 0 10 5 10 10 0 6 -4 10 -10 10 -5 0
-10 -4 -10 -10z"/>
<path d="M2012 1935 c-10 -12 -10 -15 1 -15 8 0 20 7 27 15 17 21 -10 20 -28
0z"/>
<path d="M1760 1620 c0 -5 6 -10 13 -10 9 0 8 -3 -2 -9 -9 -6 -10 -11 -2 -15
17 -11 30 2 24 24 -5 20 -33 29 -33 10z"/>
<path d="M1747 2943 c-4 -7 -3 -14 3 -18 6 -4 8 -10 5 -15 -8 -13 35 -24 47
-12 14 14 1 32 -22 32 -10 0 -20 5 -22 12 -3 9 -6 9 -11 1z"/>
<path d="M1660 2880 c0 -5 5 -10 10 -10 6 0 10 5 10 10 0 6 -4 10 -10 10 -5 0
-10 -4 -10 -10z"/>
<path d="M1802 2866 c-25 -12 -24 -29 1 -34 10 -2 17 3 17 12 0 9 5 16 10 16
6 0 10 5 10 10 0 12 -8 11 -38 -4z"/>
<path d="M1524 2675 c-18 -13 -18 -14 4 -8 12 3 25 9 28 14 8 14 -10 11 -32
-6z"/>
<path d="M1564 2655 c-4 -10 -13 -13 -25 -10 -11 4 -19 2 -19 -4 0 -13 49 -14
69 -2 7 5 10 14 7 20 -10 16 -26 14 -32 -4z"/>
<path d="M2888 2128 c9 -9 15 -9 24 0 9 9 7 12 -12 12 -19 0 -21 -3 -12 -12z"/>
<path d="M2150 554 c0 -9 6 -28 14 -42 8 -15 17 -36 21 -47 6 -19 7 -19 20 -1
8 10 17 16 22 13 4 -3 8 17 8 44 l0 49 -42 0 c-33 0 -43 -4 -43 -16z"/>
<path d="M0 236 c0 -40 4 -42 100 -49 30 -3 56 -10 58 -16 2 -6 8 -8 13 -5 6
3 24 0 40 -6 16 -7 32 -10 36 -7 5 6 -177 96 -226 112 -19 6 -21 3 -21 -29z"/>
<path d="M1055 213 c16 -38 25 -52 25 -39 0 12 -29 76 -35 76 -3 0 2 -17 10
-37z"/>
<path d="M1786 160 c-21 -27 -41 -50 -45 -50 -3 -1 -33 -25 -66 -55 l-60 -55
247 0 247 0 -10 29 c-21 60 -106 124 -214 161 -32 11 -59 20 -60 20 0 0 -18
-22 -39 -50z"/>
<path d="M267 139 c7 -7 15 -10 18 -7 3 3 -2 9 -12 12 -14 6 -15 5 -6 -5z"/>
</g>
</svg>
